<svg width="24" height="24" viewBox="0 0 24 24" fill="none" xmlns="http://www.w3.org/2000/svg">
<defs>
  <linearGradient id="grad1" x1="0%" y1="0%" x2="100%" y2="100%">
    <stop offset="0%" style="stop-color:#00F5D4;stop-opacity:1" />
    <stop offset="100%" style="stop-color:#9B5DE5;stop-opacity:1" />
  </linearGradient>
</defs>
<path fill-rule="evenodd" clip-rule="evenodd" d="M15 2H6C4.89543 2 4 2.89543 4 4V20C4 21.1046 4.89543 22 6 22H18C19.1046 22 20 21.1046 20 20V7L15 2ZM12 9C11.1716 9 10.5 9.67157 10.5 10.5V12H10C9.44772 12 9 12.4477 9 13V16C9 16.5523 9.44772 17 10 17H14C14.5523 17 15 16.5523 15 16V13C15 12.4477 14.5523 12 14 12H13.5V10.5C13.5 9.67157 12.8284 9 12 9Z" fill="url(#grad1)"/>
<path d="M14 2.5L19.5 8H15C14.4477 8 14 7.55228 14 7V2.5Z" fill="#00F5D4" fill-opacity="0.5"/>
</svg>
